<svg xmlns="http://www.w3.org/2000/svg" viewBox="0 0 39.17 39.37"><defs><style>.cls-1{fill:#00b1ff;}</style></defs><title>Asset 1</title><g id="Layer_2" data-name="Layer 2"><g id="Layer_1-2" data-name="Layer 1"><path class="cls-1" d="M30.81,11.26H24.29A40.83,40.83,0,0,1,29.72,22a10.63,10.63,0,0,1,8.59-1.48.75.75,0,0,0,.69-.1l.1-.1a.93.93,0,0,0-.1-.89l-7.9-7.9C31.2,11.45,30.9,11.36,30.81,11.26Z"/><path class="cls-1" d="M11.26,30.81c.1.1.2.4.3.49l7.9,7.9a.93.93,0,0,0,.89.1l.1-.1a.49.49,0,0,0,.1-.69A10.64,10.64,0,0,1,22,29.92a46,46,0,0,1-10.66-5.53Z"/><path class="cls-1" d="M.59,0A.51.51,0,0,0,.2.2a.51.51,0,0,0-.2.4A28,28,0,0,0,1.28,9L9,1.28A28,28,0,0,0,.59,0Z"/><circle class="cls-1" cx="10.07" cy="10.07" r="2.79" transform="translate(-4.17 10.07) rotate(-45)"/><path class="cls-1" d="M10.47,1.78,1.78,10.47a25.8,25.8,0,0,0,5.83,9A41.25,41.25,0,0,0,25.77,29.52a.73.73,0,0,0,.59-.2l.49-.49,1.48,1.48a.66.66,0,0,0,.93.06l.06-.06a.66.66,0,0,0,.06-.93l-.06-.06L17.48,17.47a.7.7,0,0,1,1-1L28.84,26.85l.49-.49a.72.72,0,0,0,.2-.59A41.25,41.25,0,0,0,19.46,7.6,25.8,25.8,0,0,0,10.47,1.78ZM13,13a4.11,4.11,0,0,1-5.82.11L7.11,13A4.11,4.11,0,0,1,7,7.22l.1-.1A4.11,4.11,0,0,1,12.93,7l.11.11a4.11,4.11,0,0,1,.1,5.82Z"/></g></g></svg>