<svg xmlns="http://www.w3.org/2000/svg" viewBox="0 0 56 55.84"><defs><style>.cls-1{fill:#ccc;}.cls-2{fill:#fff;}</style></defs><title>Asset 5</title><g id="Layer_2" data-name="Layer 2"><g id="Layer_1-2" data-name="Layer 1"><g id="Group_12" data-name="Group 12"><path id="Path_336" data-name="Path 336" class="cls-1" d="M56,28A28,28,0,1,0,11.07,50.3,10.17,10.17,0,0,1,11.39,49,6.15,6.15,0,0,1,15.27,45c1.72-.64,3.5-1.08,5.28-1.59.57-.19,1.08-.32,1.66-.51a1.53,1.53,0,0,0,.51-.38l.76-.76a.2.2,0,0,1,.13-.06,2.81,2.81,0,0,0-.32-2.35,16.12,16.12,0,0,0-1.72-1.15A5.91,5.91,0,0,1,19,34.71c-.13-.51-.38-1-.51-1.46s-.25-.76-.76-.64c-.13,0-.25-.13-.38-.19A2.77,2.77,0,0,1,17,32c-.83-1.46-1.65-2.93-2.48-4.45a1.09,1.09,0,0,1,.19-1.46.86.86,0,0,0,.13-.57,8.1,8.1,0,0,1,.32-4.26,6.84,6.84,0,0,1,3.06-3.5c.32-.19.44-.38.25-.76a12.4,12.4,0,0,1-.38-1.46c.06,0,.13-.06.19-.06.25.26.44.51.83,1A6.32,6.32,0,0,1,20.87,12c-.06.89-.13,1.59-.19,2.29.06,0,.13.06.19.06a2.77,2.77,0,0,0,.38-.44c1.66-2,3.63-3.18,6.3-2.93a8,8,0,0,1,3.63,1.27,7.73,7.73,0,0,0,2.1.89c2.86.51,4.45,2.42,5.41,5a1.33,1.33,0,0,0,.51.7A5.78,5.78,0,0,1,41,25.29c-.13.38-.19.64.19,1a1.14,1.14,0,0,1,.26.89,7.66,7.66,0,0,1-.7,1.46c-.44.83-1,1.66-1.4,2.55-.38.64-.57,1.4-1.46,1.65a1,1,0,0,0-.32.51c-.38.89-.64,1.85-1.08,2.74a5.48,5.48,0,0,1-1.27,1.65,20.89,20.89,0,0,1-2.42,1.72c-.38.06-.51.32-.51.7v.83c0,.44,0,.83.51,1a.77.77,0,0,1,.32.32c.26.76.89.83,1.46,1,1.85.51,3.76,1,5.6,1.59a6.54,6.54,0,0,1,4.26,3.82,13.55,13.55,0,0,1,.44,1.72A28,28,0,0,0,56,28Z"/><path id="Path_337" data-name="Path 337" class="cls-2" d="M40.28,44.83c-1.85-.64-3.76-1.08-5.6-1.59-.57-.19-1.27-.26-1.46-1a.77.77,0,0,0-.32-.32c-.51-.13-.57-.51-.51-1v-.83a1,1,0,0,1,.44-.89c.83-.57,1.65-1.08,2.42-1.72a5.48,5.48,0,0,0,1.27-1.65c.38-.83.64-1.78,1-2.74.06-.19.19-.51.32-.51.89-.19,1.08-1,1.46-1.65.44-.83,1-1.65,1.4-2.55a6.19,6.19,0,0,0,.7-1.46,1.14,1.14,0,0,0-.26-.89c-.38-.32-.32-.57-.19-1a5.75,5.75,0,0,0-1.85-6.43,2.82,2.82,0,0,1-.51-.7c-1-2.61-2.55-4.52-5.41-5a5.67,5.67,0,0,1-2.1-.89,8.56,8.56,0,0,0-3.63-1.27,7,7,0,0,0-6.3,2.93,2.77,2.77,0,0,0-.38.44c-.06,0-.13-.06-.19-.06q.1-1.05.19-2.29A6.21,6.21,0,0,0,19,16.19c-.38-.38-.57-.7-.83-1-.06,0-.13.06-.19.06a9.83,9.83,0,0,0,.38,1.46c.19.44.06.57-.25.76A6.84,6.84,0,0,0,15.08,21a8.1,8.1,0,0,0-.32,4.26.86.86,0,0,1-.13.57,1.09,1.09,0,0,0-.19,1.46c.83,1.53,1.66,3,2.48,4.46a1.19,1.19,0,0,0,.38.44c.13.06.25.19.38.19.51-.13.64.26.76.64A13.33,13.33,0,0,1,19,34.52,5.91,5.91,0,0,0,21.51,38l1.72,1.15a3.06,3.06,0,0,1,.32,2.35.2.2,0,0,1-.13.06l-.76.76a1.53,1.53,0,0,1-.51.38c-.57.19-1.08.32-1.66.51-1.78.51-3.56,1-5.28,1.59a6,6,0,0,0-3.88,3.94A10.17,10.17,0,0,0,11,50.11a28,28,0,0,0,16.93,5.73,27.57,27.57,0,0,0,16.93-5.73,5.72,5.72,0,0,0-.44-1.72A6.32,6.32,0,0,0,40.28,44.83Z"/></g></g></g></svg>