<svg xmlns="http://www.w3.org/2000/svg" viewBox="0 0 489.9 190.39"><defs><style>.cls-1{fill:#1b75bc;}.cls-2{opacity:0.68;}.cls-3{fill:#3cc0c3;}.cls-4{fill:none;}.cls-5{fill:#fff;}</style></defs><title>Asset 6</title><g id="Layer_2" data-name="Layer 2"><g id="Layer_1-2" data-name="Layer 1"><g id="Web_1920_1" data-name="Web 1920 1"><g id="_Group_" data-name="&lt;Group&gt;"><g id="_Group_2" data-name="&lt;Group&gt;"><rect id="Rectangle_164" data-name="Rectangle 164" class="cls-1" x="6.98" y="187.04" width="471.93" height="3.25"/></g><g id="_Group_3" data-name="&lt;Group&gt;"><rect id="Rectangle_165" data-name="Rectangle 165" class="cls-1" x="483.11" y="187.04" width="6.79" height="3.25"/></g><g id="_Group_4" data-name="&lt;Group&gt;"><rect id="Rectangle_166" data-name="Rectangle 166" class="cls-1" y="187.04" width="5.26" height="3.25"/></g></g><g id="Group_23" data-name="Group 23" class="cls-2"><g id="_Group_5" data-name="&lt;Group&gt;"><g id="_Group_6" data-name="&lt;Group&gt;"><path id="Path_498" data-name="Path 498" class="cls-1" d="M346,176.72h-3.25V61.37A10.28,10.28,0,0,0,332.49,51H315.67V47.79H332.4A13.62,13.62,0,0,1,346,61.37Z"/></g><g id="_Group_7" data-name="&lt;Group&gt;"><rect id="Rectangle_167" data-name="Rectangle 167" class="cls-1" x="167.92" y="47.79" width="130.74" height="3.25"/></g><g id="_Group_8" data-name="&lt;Group&gt;"><rect id="Rectangle_168" data-name="Rectangle 168" class="cls-1" x="154.44" y="61.37" width="3.25" height="113.06"/></g><path id="Path_499" data-name="Path 499" class="cls-1" d="M364.8,175.19H265.21L262,178.44H232.62l-3.25-3.25H129.69l-1,1.82.57.86,4.3,6.21a14.86,14.86,0,0,0,12.14,6.31H348.83A15,15,0,0,0,361,184.08l4.3-6.21.57-.86Zm-6.59,7a11.69,11.69,0,0,1-9.46,4.87H145.65a11.68,11.68,0,0,1-9.46-4.87l-2.68-3.73h94l3.54,3.25H263.3l3.54-3.25h94Z"/><g id="_Group_9" data-name="&lt;Group&gt;"><path id="Path_500" data-name="Path 500" class="cls-1" d="M335.84,176.82h-3.25V61.75H318.16V58.5h15.77a1.81,1.81,0,0,1,1.82,1.81h0v116.5Z"/></g><g id="_Group_10" data-name="&lt;Group&gt;"><path id="Path_501" data-name="Path 501" class="cls-1" d="M166.77,176.91h-3.25V60.31a1.82,1.82,0,0,1,1.81-1.82H286.52v3.25H166.77Z"/></g><g id="_Group_11" data-name="&lt;Group&gt;"><rect id="Rectangle_169" data-name="Rectangle 169" class="cls-1" x="165.15" y="70.54" width="115.36" height="3.25"/></g><g id="_Group_12" data-name="&lt;Group&gt;"><path id="Path_502" data-name="Path 502" class="cls-1" d="M265.78,127.21H182v-47h83.82ZM185.22,124h77.41V83.44H185.22V124Z"/></g><g id="Group_19" data-name="Group 19"><g id="_Group_13" data-name="&lt;Group&gt;"><path id="Path_503" data-name="Path 503" class="cls-1" d="M203.76,139H183.69a1.63,1.63,0,0,1-.18-3.25h20.25a1.7,1.7,0,0,1,1.72,1.63A1.53,1.53,0,0,1,204,139Z"/></g><g id="_Group_14" data-name="&lt;Group&gt;"><path id="Path_504" data-name="Path 504" class="cls-1" d="M215.9,148.91H183.69a1.63,1.63,0,0,1-.18-3.25H215.9a1.63,1.63,0,0,1,.18,3.25Z"/></g><g id="_Group_15" data-name="&lt;Group&gt;"><path id="Path_505" data-name="Path 505" class="cls-1" d="M215.9,154.07H183.69a1.63,1.63,0,0,1-.18-3.25H215.9a1.7,1.7,0,0,1,1.72,1.63,1.63,1.63,0,0,1-1.64,1.63Z"/></g><g id="_Group_16" data-name="&lt;Group&gt;"><path id="Path_506" data-name="Path 506" class="cls-1" d="M215.9,159.33H183.69a1.63,1.63,0,0,1-.18-3.25H215.9a1.63,1.63,0,0,1,.18,3.25Z"/></g></g><g id="Group_20" data-name="Group 20"><g id="_Group_17" data-name="&lt;Group&gt;"><path id="Path_507" data-name="Path 507" class="cls-1" d="M254.89,139H234.82a1.63,1.63,0,0,1-.18-3.25h20.25a1.7,1.7,0,0,1,1.72,1.63,1.58,1.58,0,0,1-1.53,1.63Z"/></g><g id="_Group_18" data-name="&lt;Group&gt;"><path id="Path_508" data-name="Path 508" class="cls-1" d="M267,148.91H234.82a1.63,1.63,0,0,1-.18-3.25H267a1.63,1.63,0,0,1,.18,3.25Z"/></g><g id="_Group_19" data-name="&lt;Group&gt;"><path id="Path_509" data-name="Path 509" class="cls-1" d="M267,154.07H234.82a1.63,1.63,0,0,1-.18-3.25H267a1.7,1.7,0,0,1,1.72,1.63,1.63,1.63,0,0,1-1.64,1.63Z"/></g><g id="_Group_20" data-name="&lt;Group&gt;"><path id="Path_510" data-name="Path 510" class="cls-1" d="M267,159.33H234.82a1.63,1.63,0,0,1-.18-3.25H267a1.63,1.63,0,0,1,.18,3.25Z"/></g></g><g id="Group_21" data-name="Group 21"><g id="_Group_21" data-name="&lt;Group&gt;"><path id="Path_511" data-name="Path 511" class="cls-1" d="M306,139.35H285.95a1.63,1.63,0,0,1-.18-3.25H306a1.63,1.63,0,1,1,.18,3.25Z"/></g><g id="_Group_22" data-name="&lt;Group&gt;"><path id="Path_512" data-name="Path 512" class="cls-1" d="M318.16,149.2H285.95a1.63,1.63,0,0,1-.18-3.25h32.39a1.7,1.7,0,0,1,1.72,1.63,1.63,1.63,0,0,1-1.64,1.63Z"/></g><g id="_Group_23" data-name="&lt;Group&gt;"><path id="Path_513" data-name="Path 513" class="cls-1" d="M318.16,154.45H285.95a1.63,1.63,0,0,1-.18-3.25h32.39a1.63,1.63,0,0,1,.18,3.25Z"/></g><g id="_Group_24" data-name="&lt;Group&gt;"><path id="Path_514" data-name="Path 514" class="cls-1" d="M318.16,159.61H285.95a1.63,1.63,0,0,1-.18-3.25h32.39a1.7,1.7,0,0,1,1.72,1.63,1.63,1.63,0,0,1-1.64,1.63Z"/></g></g><g id="_Group_25" data-name="&lt;Group&gt;"><path id="Path_515" data-name="Path 515" class="cls-3" d="M207.39,90.23H188.75a1.63,1.63,0,0,1,0-3.25h18.64a1.63,1.63,0,0,1,.08,3.25Z"/></g><g id="_Group_26" data-name="&lt;Group&gt;"><path id="Path_516" data-name="Path 516" class="cls-3" d="M256,100.17H188.85a1.84,1.84,0,0,1-1.72-1.34,1.59,1.59,0,0,1,1.63-1.91h68C258.43,98.35,257.47,100.17,256,100.17Z"/></g><g id="_Group_27" data-name="&lt;Group&gt;"><path id="Path_517" data-name="Path 517" class="cls-3" d="M256,105.33H188.85a1.84,1.84,0,0,1-1.72-1.34,1.59,1.59,0,0,1,1.63-1.91h68C258.43,103.51,257.47,105.33,256,105.33Z"/></g><g id="_Group_28" data-name="&lt;Group&gt;"><path id="Path_518" data-name="Path 518" class="cls-3" d="M256,110.58H188.85a1.84,1.84,0,0,1-1.72-1.34,1.59,1.59,0,0,1,1.63-1.91h68C258.43,108.77,257.47,110.58,256,110.58Z"/></g><g id="_Group_29" data-name="&lt;Group&gt;"><path id="Path_519" data-name="Path 519" class="cls-3" d="M203.85,115.75h-15.1a1.63,1.63,0,0,1,0-3.25h15.1a1.63,1.63,0,0,1,0,3.25Z"/></g></g><g id="_Group_30" data-name="&lt;Group&gt;"><g id="_Group_31" data-name="&lt;Group&gt;"><path id="Path_520" data-name="Path 520" class="cls-1" d="M140.2,61.94c-1,0-2-.1-3-.19a25.79,25.79,0,1,1,28.19-30.49,25.34,25.34,0,0,1-1.62,14.81L166,58a2,2,0,0,1-.48,1.63,1.55,1.55,0,0,1-1.62.48l-10.6-1.91A23.9,23.9,0,0,1,140.2,61.94Zm0-48.26a22.54,22.54,0,0,0-2.68,44.92,22.23,22.23,0,0,0,14.53-3.35l.57-.38,9.94,1.82-2-10.8.19-.48A22.14,22.14,0,0,0,162.28,32,22.66,22.66,0,0,0,143.45,14a18.66,18.66,0,0,0-3.25-.29Z"/></g><g id="_Group_32" data-name="&lt;Group&gt;"><path id="Path_521" data-name="Path 521" class="cls-1" d="M139.73,9.95a1.68,1.68,0,0,1-1.62-1.62V4a1.63,1.63,0,0,1,3.25-.08s0,.05,0,.08v4.4A1.53,1.53,0,0,1,139.81,10Z"/></g><g id="_Group_33" data-name="&lt;Group&gt;"><path id="Path_522" data-name="Path 522" class="cls-1" d="M149.38,11.48a1.21,1.21,0,0,1-.57-.1,1.63,1.63,0,0,1-1-2.09h0l3-8.22a1.63,1.63,0,0,1,3.06,1.15l-3,8.22A1.64,1.64,0,0,1,149.38,11.48Z"/></g><g id="_Group_34" data-name="&lt;Group&gt;"><path id="Path_523" data-name="Path 523" class="cls-1" d="M157.88,16.16a1.44,1.44,0,0,1-1.05-.38,1.65,1.65,0,0,1-.19-2.29l2.77-3.35a1.63,1.63,0,0,1,2.57,2l-.08.1-2.77,3.34A1.68,1.68,0,0,1,157.88,16.16Z"/></g><g id="_Group_35" data-name="&lt;Group&gt;"><path id="Path_524" data-name="Path 524" class="cls-1" d="M164.29,23.42a1.69,1.69,0,0,1-1.43-.76,1.59,1.59,0,0,1,.54-2.18l0,0,7.55-4.4a1.61,1.61,0,1,1,1.63,2.77l-7.55,4.4A1.29,1.29,0,0,1,164.29,23.42Z"/></g><g id="_Group_36" data-name="&lt;Group&gt;"><path id="Path_525" data-name="Path 525" class="cls-1" d="M167.73,32.5a1.73,1.73,0,0,1-1.62-1.34,1.69,1.69,0,0,1,1.34-1.91l4.11-.67a1.65,1.65,0,0,1,.57,3.25L168,32.5Z"/></g><g id="_Group_37" data-name="&lt;Group&gt;"><path id="Path_526" data-name="Path 526" class="cls-1" d="M129.5,69.2a1.21,1.21,0,0,1-.57-.1A1.63,1.63,0,0,1,128,67h0l1.82-4.87a1.63,1.63,0,1,1,3.06,1.15L131,68.15A1.64,1.64,0,0,1,129.5,69.2Z"/></g><g id="_Group_38" data-name="&lt;Group&gt;"><path id="Path_527" data-name="Path 527" class="cls-1" d="M117.17,66.34a1.44,1.44,0,0,1-1.05-.38,1.65,1.65,0,0,1-.19-2.29L121.57,57a1.63,1.63,0,1,1,2.57,2l-.08.1-5.64,6.69A1.85,1.85,0,0,1,117.17,66.34Z"/></g><g id="_Group_39" data-name="&lt;Group&gt;"><path id="Path_528" data-name="Path 528" class="cls-1" d="M112.11,54.77a1.66,1.66,0,0,1-.86-3.06l4.3-2.49A1.61,1.61,0,1,1,117.17,52l-4.3,2.49A1.08,1.08,0,0,1,112.11,54.77Z"/></g><g id="_Group_40" data-name="&lt;Group&gt;"><path id="Path_529" data-name="Path 529" class="cls-1" d="M104.27,44.74a1.73,1.73,0,0,1-1.62-1.34A1.69,1.69,0,0,1,104,41.49l8.6-1.53a1.77,1.77,0,0,1,1.91,1.34,1.69,1.69,0,0,1-1.34,1.91l-8.6,1.53Z"/></g><g id="_Group_41" data-name="&lt;Group&gt;"><path id="Path_530" data-name="Path 530" class="cls-1" d="M112.78,33.56h-.29l-4.11-.76a1.65,1.65,0,0,1,.5-3.26H109l4.11.76a1.64,1.64,0,0,1-.29,3.25Z"/></g><g id="_Group_42" data-name="&lt;Group&gt;"><path id="Path_531" data-name="Path 531" class="cls-1" d="M115.93,24.38a1.8,1.8,0,0,1-.76-.19l-7.55-4.4A1.61,1.61,0,1,1,109.24,17l7.55,4.4a1.59,1.59,0,0,1,.59,2.17l0,0A2,2,0,0,1,115.93,24.38Z"/></g><g id="_Group_43" data-name="&lt;Group&gt;"><path id="Path_532" data-name="Path 532" class="cls-1" d="M122,16.83a1.54,1.54,0,0,1-1.24-.57l-2.77-3.35a1.63,1.63,0,1,1,2.4-2.2l.08.1,2.77,3.35a1.65,1.65,0,0,1-.19,2.29A1.44,1.44,0,0,1,122,16.83Z"/></g><g id="_Group_44" data-name="&lt;Group&gt;"><path id="Path_533" data-name="Path 533" class="cls-1" d="M130.36,11.86a1.64,1.64,0,0,1-1.53-1.05l-3-8.22a1.63,1.63,0,0,1,3.06-1.15l3,8.22a1.63,1.63,0,0,1-.95,2.1h0A3.38,3.38,0,0,0,130.36,11.86Z"/></g></g><g id="Group_22" data-name="Group 22"><g id="_Group_45" data-name="&lt;Group&gt;"><path id="Path_534" data-name="Path 534" class="cls-1" d="M303.15,54.39a1.21,1.21,0,0,1-.57-.1,1.75,1.75,0,0,1-1.24-1.72V45.12h-2.77a1.71,1.71,0,0,1-1.72-1.71s0,0,0,0V13.77a1.71,1.71,0,0,1,1.71-1.72h64.62a1.71,1.71,0,0,1,1.72,1.71s0,0,0,0V43.4a1.71,1.71,0,0,1-1.71,1.72h-47.8L304.3,53.91A1.58,1.58,0,0,1,303.15,54.39ZM300.1,41.87h4.49v7.74l9.75-7.74h47.4V15.21H300.1Z"/></g><g id="_Group_46" data-name="&lt;Group&gt;"><g id="_Group_47" data-name="&lt;Group&gt;"><g id="_Group_48" data-name="&lt;Group&gt;"><circle class="cls-4" cx="302.2" cy="100.17" r="28.77"/><g id="_Group_49" data-name="&lt;Group&gt;"><g id="_Group_50" data-name="&lt;Group&gt;"><path id="Path_535" data-name="Path 535" class="cls-1" d="M281.84,128.94h-3.25v-6.31c0-7.26,4.49-14.15,11.76-17.87l1.53,2.87c-6.12,3.15-9.94,8.89-9.94,15v6.31Z"/></g><g id="_Group_51" data-name="&lt;Group&gt;"><path id="Path_536" data-name="Path 536" class="cls-1" d="M326.47,128.94h-3.25v-6.31c0-6.31-4.11-12.14-10.61-15.29l1.43-3c7.74,3.63,12.52,10.61,12.52,18.25v6.31Z"/></g></g></g><g id="_Group_52" data-name="&lt;Group&gt;"><path id="Path_537" data-name="Path 537" class="cls-1" d="M302.2,130.56a30.38,30.38,0,0,1-20.36-52.95L284,80a27.14,27.14,0,1,0,36.32,0l2.2-2.39a30.38,30.38,0,0,1-20.36,52.95Z"/></g><g id="_Group_53" data-name="&lt;Group&gt;"><g id="_Group_54" data-name="&lt;Group&gt;"><path id="Path_538" data-name="Path 538" class="cls-5" d="M320.93,81.05a2.12,2.12,0,0,1-2.1,2.1h0a2.12,2.12,0,0,1-2.1-2.1V78.95a2.12,2.12,0,0,1,2.1-2.1h0a2.12,2.12,0,0,1,2.1,2.1Z"/></g><g id="_Group_55" data-name="&lt;Group&gt;"><path id="Path_539" data-name="Path 539" class="cls-1" d="M318.73,84.88A3.73,3.73,0,0,1,315,81.15V79a3.73,3.73,0,0,1,7.45,0v2.1a3.67,3.67,0,0,1-3.62,3.73Zm0-6.4a.45.45,0,0,0-.48.48v2.1a.48.48,0,0,0,1,0h0V79a.51.51,0,0,0-.48-.48Z"/></g><g id="_Group_56" data-name="&lt;Group&gt;"><path id="Path_540" data-name="Path 540" class="cls-5" d="M287.57,81.05a2.12,2.12,0,0,1-2.1,2.1h0a2.12,2.12,0,0,1-2.1-2.1V78.95a2.12,2.12,0,0,1,2.1-2.1h0a2.12,2.12,0,0,1,2.1,2.1Z"/></g><g id="_Group_57" data-name="&lt;Group&gt;"><path id="Path_541" data-name="Path 541" class="cls-1" d="M285.38,84.88a3.73,3.73,0,0,1-3.73-3.73V79a3.73,3.73,0,0,1,7.45,0v2.1a3.67,3.67,0,0,1-3.62,3.73Zm0-6.4a.45.45,0,0,0-.48.48v2.1a.48.48,0,1,0,1,0h0V79c.1-.19-.19-.48-.48-.48Z"/></g><g id="_Group_58" data-name="&lt;Group&gt;"><path id="Path_542" data-name="Path 542" class="cls-1" d="M302,107.62l-5.92-2V98.74h3.25v4.59l2.68.86,2.68-.86V98.74h3.25v6.88Z"/></g><g id="_Group_59" data-name="&lt;Group&gt;"><path id="Path_543" data-name="Path 543" class="cls-3" d="M301.62,106.19l-6.12,7.17c-.29.29-.77.19-.77-.19l-2-10.42,3.92-1.24Z"/></g><g id="_Group_60" data-name="&lt;Group&gt;"><path id="Path_544" data-name="Path 544" class="cls-3" d="M302.87,106.19l6.12,7.17c.29.29.77.19.77-.19l2.48-9.37-4.59-1.62Z"/></g><g id="_Group_61" data-name="&lt;Group&gt;"><path id="Path_545" data-name="Path 545" class="cls-1" d="M294,115.94a.72.72,0,0,1-.48-.1,2.2,2.2,0,0,1-1.53-1.62l-2.29-11.85,6.31-1.91,6.79,6.31-7.07,8.41A2.77,2.77,0,0,1,294,115.94Zm-.67-11.28,1.24,6.59,3.54-4.21-3.15-2.87Z"/></g><g id="_Group_62" data-name="&lt;Group&gt;"><path id="Path_546" data-name="Path 546" class="cls-1" d="M309.56,115.93a2.36,2.36,0,0,1-1.62-.76l-7.17-8.51,6.79-5.73,6.88,2.49-2.87,10.8a2.24,2.24,0,0,1-1.53,1.53A.62.62,0,0,1,309.56,115.93Zm-4.2-8.79,3.63,4.21,1.53-5.83-2.29-.86Z"/></g><g id="_Group_63" data-name="&lt;Group&gt;"><path id="Path_547" data-name="Path 547" class="cls-1" d="M305.16,83.54h-6.31V72h3.25v8.32h3.06Z"/></g><g id="_Group_64" data-name="&lt;Group&gt;"><rect id="Rectangle_170" data-name="Rectangle 170" class="cls-1" x="305.64" y="71.69" width="5.93" height="3.25"/></g><g id="_Group_65" data-name="&lt;Group&gt;"><rect id="Rectangle_171" data-name="Rectangle 171" class="cls-1" x="292.64" y="71.69" width="5.93" height="3.25"/></g><g id="_Group_66" data-name="&lt;Group&gt;"><path id="Path_548" data-name="Path 548" class="cls-3" d="M303.06,86.12l.67-.48a2.13,2.13,0,0,1,3,.48c1.05,1.43,2.68,3.25,4.4,3.63.29.1.29.38.1.48-2,.86-6.79,2.2-9.08-1.91H302c-2.29,4.11-7,2.68-9,1.82-.19-.1-.19-.38.1-.48,1.72-.38,3.35-2.2,4.4-3.63a2.13,2.13,0,0,1,3-.48l.67.48Z"/></g><g id="_Group_67" data-name="&lt;Group&gt;"><path id="Path_549" data-name="Path 549" class="cls-1" d="M307,92.81A7.2,7.2,0,0,1,302,91c-2.2,2.1-5.64,2.39-9.65.76a1.8,1.8,0,0,1-1.15-1.91,1.74,1.74,0,0,1,1.53-1.62c1-.19,2.1-1.24,3.35-3a3.8,3.8,0,0,1,5.26-.86l.29.19,1.05.1.19-.1a3.89,3.89,0,0,1,5.26.86c1.24,1.72,2.48,2.77,3.35,3A1.92,1.92,0,0,1,313,90a1.8,1.8,0,0,1-1.15,1.91A20.18,20.18,0,0,1,307,92.81Zm-3.44-5.07a4.26,4.26,0,0,0,3.82,1.82,17.58,17.58,0,0,1-2-2.39.47.47,0,0,0-.66-.11h0Zm-6.88,1.72a3.6,3.6,0,0,0,3.82-1.82h0L299.43,87a.46.46,0,0,0-.65.07l0,0a28.59,28.59,0,0,1-2.1,2.39Z"/></g><g id="_Group_68" data-name="&lt;Group&gt;"><path id="Path_550" data-name="Path 550" class="cls-3" d="M288.24,63.66s.38,3.06,2.39,4.3a1.07,1.07,0,0,1,.1,1.82,16.06,16.06,0,0,0-4,5.26S285,67.1,288.24,63.66Z"/></g><g id="_Group_69" data-name="&lt;Group&gt;"><path id="Path_551" data-name="Path 551" class="cls-1" d="M287.38,75.7l-3-1.43a16.69,16.69,0,0,1,4.68-5.35c-2.1-1.72-2.48-4.68-2.58-5.07l3.25-.38a5.3,5.3,0,0,0,1.63,3.15,2.85,2.85,0,0,1,.29,4.49l-.38.38A12,12,0,0,0,287.38,75.7Z"/></g><g id="_Group_70" data-name="&lt;Group&gt;"><path id="Path_552" data-name="Path 552" class="cls-3" d="M315.77,63.66s-.38,3.06-2.39,4.3a1.07,1.07,0,0,0-.1,1.82,16.06,16.06,0,0,1,4,5.26C317.21,75,319,67.1,315.77,63.66Z"/></g><g id="_Group_71" data-name="&lt;Group&gt;"><path id="Path_553" data-name="Path 553" class="cls-1" d="M316.53,75.7a13.87,13.87,0,0,0-3.92-4.4l-.38-.38a2.57,2.57,0,0,1-1-2.29,3.22,3.22,0,0,1,1.24-2.2,4.81,4.81,0,0,0,1.63-3.15l3.25.38a8.1,8.1,0,0,1-2.58,5.07,16.69,16.69,0,0,1,4.68,5.36Z"/></g><g id="_Group_72" data-name="&lt;Group&gt;"><path id="Path_554" data-name="Path 554" class="cls-1" d="M302,101a7.79,7.79,0,0,1-3-.57l-4.49-1.82a16.21,16.21,0,0,1-10.13-15V71a15,15,0,0,1,14.94-15h5.32a15,15,0,0,1,15,14.94s0,0,0,.06V83.63a16.21,16.21,0,0,1-10.13,15l-4.49,1.82A9.06,9.06,0,0,1,302,101Zm-2.68-41.76A11.75,11.75,0,0,0,287.58,71h0V83.63a13,13,0,0,0,8.12,12l4.49,1.82a4.54,4.54,0,0,0,3.54,0l4.49-1.82a13,13,0,0,0,8.12-12V71a11.75,11.75,0,0,0-11.74-11.76h-5.27Z"/></g></g></g><g id="_Group_73" data-name="&lt;Group&gt;"><path id="Path_555" data-name="Path 555" class="cls-3" d="M358.11,23.81h-53a1.63,1.63,0,0,1-.08-3.25h53.12a1.63,1.63,0,0,1,0,3.25Z"/></g><g id="_Group_74" data-name="&lt;Group&gt;"><path id="Path_556" data-name="Path 556" class="cls-3" d="M358.11,29.83h-53a1.63,1.63,0,0,1-.08-3.25h53.12a1.67,1.67,0,0,1,1.63,1.63A1.75,1.75,0,0,1,358.11,29.83Z"/></g><g id="_Group_75" data-name="&lt;Group&gt;"><path id="Path_557" data-name="Path 557" class="cls-3" d="M358.11,35.85H324.66a1.63,1.63,0,0,1-.08-3.25h33.53a1.67,1.67,0,0,1,1.63,1.63A1.75,1.75,0,0,1,358.11,35.85Z"/></g></g><g id="_Group_76" data-name="&lt;Group&gt;"><path id="Path_558" data-name="Path 558" class="cls-3" d="M136.57,50.57,124.91,38.72,132,31.83l4.68,4.68,14-13.76,7,7Z"/></g></g></g></g></g></g></svg>