<svg xmlns="http://www.w3.org/2000/svg" viewBox="0 0 489.9 320.75"><defs><style>.cls-1{opacity:0.68;}.cls-2{fill:#1b75bc;}.cls-3,.cls-4{fill:#00b1ff;}.cls-3,.cls-5{stroke:#1b75bc;stroke-width:3px;}.cls-5{fill:none;}</style></defs><title>Asset 1</title><g id="Layer_2" data-name="Layer 2"><g id="Layer_1-2" data-name="Layer 1"><g id="Web_1920_1" data-name="Web 1920 1"><g id="Group_27" data-name="Group 27" class="cls-1"><g id="Group_24" data-name="Group 24"><g id="XMLID_75_2" data-name="XMLID 75 2"><g id="XMLID_78_2" data-name="XMLID 78 2"><rect id="Rectangle_172" data-name="Rectangle 172" class="cls-2" x="6.98" y="317.5" width="471.93" height="3.25"/></g><g id="XMLID_77_2" data-name="XMLID 77 2"><rect id="Rectangle_173" data-name="Rectangle 173" class="cls-2" x="483.11" y="317.5" width="6.79" height="3.25"/></g><g id="XMLID_76_2" data-name="XMLID 76 2"><rect id="Rectangle_174" data-name="Rectangle 174" class="cls-2" y="317.5" width="5.26" height="3.25"/></g></g><g id="XMLID_70_2" data-name="XMLID 70 2"><g id="XMLID_74_2" data-name="XMLID 74 2"><rect id="Rectangle_175" data-name="Rectangle 175" class="cls-2" x="69.67" y="273.73" width="3.25" height="35.65"/></g><g id="XMLID_73_2" data-name="XMLID 73 2"><path id="Path_559" data-name="Path 559" class="cls-2" d="M69.67,230.62h3.25V220.3a9.79,9.79,0,0,1,9.75-9.75H208.25A9.79,9.79,0,0,1,218,220.3v9.18h3.25V220.3a12.91,12.91,0,0,0-12.9-12.9H82.57a12.91,12.91,0,0,0-12.9,12.9Z"/></g><g id="XMLID_72_2" data-name="XMLID 72 2"><rect id="Rectangle_176" data-name="Rectangle 176" class="cls-2" x="217.9" y="284.91" width="3.25" height="24.47"/></g><g id="XMLID_71_2" data-name="XMLID 71 2"><path id="Path_560" data-name="Path 560" class="cls-2" d="M58,315.11l-3.44-4.87-.57-.86,1-1.82h78.46l2.77,2.58h22.94l2.58-2.58h75l.86,1.82-4,5.73a12,12,0,0,1-9.84,5.07H67.86A12,12,0,0,1,58,315.11Zm105-4.3-2.58,2.58H134.95l-2.77-2.58H59l1.72,2.39a8.83,8.83,0,0,0,7.17,3.73h156A8.83,8.83,0,0,0,231,313.2l1.72-2.39Z"/></g></g><g id="XMLID_40_2" data-name="XMLID 40 2"><g id="XMLID_63_2" data-name="XMLID 63 2"><g id="XMLID_69_2" data-name="XMLID 69 2"><path id="Path_561" data-name="Path 561" class="cls-2" d="M141.06,273a9.62,9.62,0,0,0,3.73-.76,8.36,8.36,0,0,0,3.06-2.1,9.71,9.71,0,0,0,2.1-3.06,9.47,9.47,0,0,0,0-7.46,8.36,8.36,0,0,0-2.1-3.06,9.71,9.71,0,0,0-3.06-2.1,9.6,9.6,0,0,0-7.46,0,8.36,8.36,0,0,0-3.06,2.1,9.7,9.7,0,0,0-2.1,3.06l3,1.24a6.15,6.15,0,0,1,3.35-3.35,6.4,6.4,0,0,1,5,0,6.15,6.15,0,0,1,3.35,3.35,6.7,6.7,0,0,1,0,5,6.15,6.15,0,0,1-3.35,3.35,6.4,6.4,0,0,1-5,0,6.15,6.15,0,0,1-3.35-3.35l-3,1.24a8.36,8.36,0,0,0,2.1,3.06,9.46,9.46,0,0,0,6.79,2.87Z"/></g><g id="XMLID_68_2" data-name="XMLID 68 2"><path id="Path_562" data-name="Path 562" class="cls-2" d="M79,294.56h51a5.3,5.3,0,0,0,5.26-5.26V266.94h-3.25V289.3a2,2,0,0,1-1.91,2H79Z"/></g><g id="XMLID_67_2" data-name="XMLID 67 2"><path id="Path_563" data-name="Path 563" class="cls-2" d="M132.08,259.68h3.25V237.12a5.3,5.3,0,0,0-5.26-5.26H79v3.25h51a2,2,0,0,1,2,1.91s0,.06,0,.1Z"/></g><g id="XMLID_66_2" data-name="XMLID 66 2"><path id="Path_564" data-name="Path 564" class="cls-2" d="M160.08,273.06a9.62,9.62,0,0,0,3.73-.76,8.36,8.36,0,0,0,3.06-2.1,11.59,11.59,0,0,0,2.1-3.06,10,10,0,0,0,.76-3.73,9.62,9.62,0,0,0-.76-3.73,8.36,8.36,0,0,0-2.1-3.06,9.71,9.71,0,0,0-3.06-2.1,10,10,0,0,0-7.46,0,8.36,8.36,0,0,0-3.06,2.1,9.71,9.71,0,0,0-2.1,3.06l3,1.24a6.15,6.15,0,0,1,3.35-3.35,6.4,6.4,0,0,1,5,0,6.15,6.15,0,0,1,3.35,3.35,6.7,6.7,0,0,1,0,5,6.15,6.15,0,0,1-3.35,3.35,6.4,6.4,0,0,1-5,0,6.15,6.15,0,0,1-3.35-3.35l-3,1.24a8.36,8.36,0,0,0,2.1,3.06,11.59,11.59,0,0,0,3.06,2.1A9.62,9.62,0,0,0,160.08,273.06Z"/></g><g id="XMLID_65_2" data-name="XMLID 65 2"><path id="Path_565" data-name="Path 565" class="cls-2" d="M156.35,294.66h56.29v-3.25H156.35a2,2,0,0,1-2-1.91s0-.06,0-.1V267H151.1V289.4a5.18,5.18,0,0,0,5.11,5.26Z"/></g><g id="XMLID_64_2" data-name="XMLID 64 2"><path id="Path_566" data-name="Path 566" class="cls-2" d="M151.1,259.77h3.25V237.22a2,2,0,0,1,1.91-2h56.39V232H156.35a5.3,5.3,0,0,0-5.26,5.26Z"/></g></g><g id="XMLID_62_2" data-name="XMLID 62 2"><rect id="Rectangle_177" data-name="Rectangle 177" class="cls-2" x="184.55" y="243.72" width="28.1" height="3.25"/></g><g id="XMLID_61_2" data-name="XMLID 61 2"><rect id="Rectangle_178" data-name="Rectangle 178" class="cls-2" x="215.8" y="243.72" width="44.06" height="3.25"/></g><g id="XMLID_60_2" data-name="XMLID 60 2"><rect id="Rectangle_179" data-name="Rectangle 179" class="cls-2" x="201.27" y="255.66" width="45.59" height="3.25"/></g><g id="XMLID_59_2" data-name="XMLID 59 2"><rect id="Rectangle_180" data-name="Rectangle 180" class="cls-2" x="184.55" y="255.66" width="13.09" height="3.25"/></g><g id="XMLID_58_2" data-name="XMLID 58 2"><rect id="Rectangle_181" data-name="Rectangle 181" class="cls-2" x="184.55" y="267.61" width="33.45" height="3.25"/></g><g id="XMLID_57_2" data-name="XMLID 57 2"><rect id="Rectangle_182" data-name="Rectangle 182" class="cls-2" x="222.97" y="267.61" width="10.42" height="3.25"/></g><g id="XMLID_53_2" data-name="XMLID 53 2"><rect id="Rectangle_183" data-name="Rectangle 183" class="cls-2" x="184.55" y="279.56" width="41.96" height="3.25"/></g><g id="XMLID_52_2" data-name="XMLID 52 2"><rect id="Rectangle_184" data-name="Rectangle 184" class="cls-2" x="58.01" y="243.72" width="58.68" height="3.25"/></g><g id="XMLID_51_2" data-name="XMLID 51 2"><rect id="Rectangle_185" data-name="Rectangle 185" class="cls-2" x="47.5" y="243.72" width="8.7" height="3.25"/></g><g id="XMLID_50_2" data-name="XMLID 50 2"><rect id="Rectangle_186" data-name="Rectangle 186" class="cls-2" x="72.54" y="255.66" width="44.15" height="3.25"/></g><g id="XMLID_48_2" data-name="XMLID 48 2"><rect id="Rectangle_187" data-name="Rectangle 187" class="cls-2" x="66.52" y="255.66" width="4.2" height="3.25"/></g><g id="XMLID_47_2" data-name="XMLID 47 2"><rect id="Rectangle_188" data-name="Rectangle 188" class="cls-2" x="93.09" y="267.61" width="23.61" height="3.25"/></g><g id="_Group_" data-name="&lt;Group&gt;"><rect id="Rectangle_189" data-name="Rectangle 189" class="cls-2" x="44.44" y="267.61" width="45.4" height="3.25"/></g><g id="_Group_2" data-name="&lt;Group&gt;"><rect id="Rectangle_190" data-name="Rectangle 190" class="cls-2" x="74.26" y="279.56" width="42.43" height="3.25"/></g><g id="_Group_3" data-name="&lt;Group&gt;"><rect id="Rectangle_191" data-name="Rectangle 191" class="cls-2" x="69.58" y="279.56" width="2.96" height="3.25"/></g><g id="_Group_4" data-name="&lt;Group&gt;"><rect id="Rectangle_192" data-name="Rectangle 192" class="cls-2" x="215.8" y="231.87" width="21.5" height="3.25"/></g><g id="XMLID_42_2" data-name="XMLID 42 2"><rect id="Rectangle_193" data-name="Rectangle 193" class="cls-2" x="43.87" y="231.87" width="31.16" height="3.25"/></g><g id="XMLID_41_2" data-name="XMLID 41 2"><rect id="Rectangle_194" data-name="Rectangle 194" class="cls-2" x="242.27" y="231.87" width="12.04" height="3.25"/></g></g><g id="XMLID_33_2" data-name="XMLID 33 2"><g id="XMLID_39_2" data-name="XMLID 39 2"><rect id="Rectangle_195" data-name="Rectangle 195" class="cls-2" x="350.45" y="291.33" width="3.35" height="20.36" transform="translate(-77.09 126.36) rotate(-18.37)"/></g><g id="XMLID_38_2" data-name="XMLID 38 2"><rect id="Rectangle_196" data-name="Rectangle 196" class="cls-2" x="259.35" y="296.47" width="15.2" height="3.35" transform="translate(-105.57 444.37) rotate(-69.59)"/></g><g id="XMLID_37_2" data-name="XMLID 37 2"><path id="Path_567" data-name="Path 567" class="cls-2" d="M358.87,320.56h-99.3v-3.35h99.3a2.2,2.2,0,0,0,0-4.4H313.28v-3.34h45.59a5.54,5.54,0,0,1,0,11.09Z"/></g><g id="XMLID_36_2" data-name="XMLID 36 2"><path id="Path_568" data-name="Path 568" class="cls-2" d="M203.76,202.24h-3.35V164.1a5.1,5.1,0,0,1,5.07-5.06h88.88v3.35H205.48a1.71,1.71,0,0,0-1.72,1.71s0,0,0,0Z"/></g><g id="XMLID_35_2" data-name="XMLID 35 2"><path id="Path_569" data-name="Path 569" class="cls-2" d="M413.73,293H250.59v-3.35h163a1.71,1.71,0,0,0,1.72-1.71s0,0,0,0V164.1a1.71,1.71,0,0,0-1.71-1.72H318.73V159h94.9a5.1,5.1,0,0,1,5.07,5.06V288a5,5,0,0,1-4.85,5.06Z"/></g><g id="_Group_5" data-name="&lt;Group&gt;"><rect id="Rectangle_197" data-name="Rectangle 197" class="cls-2" x="277.35" y="266.18" width="139.06" height="3.35"/></g></g><g id="XMLID_17_2" data-name="XMLID 17 2"><g id="XMLID_32_2" data-name="XMLID 32 2"><path id="Path_570" data-name="Path 570" class="cls-2" d="M323.42,231.29h-3.35A8.93,8.93,0,0,1,329,222.4v3.35A5.61,5.61,0,0,0,323.42,231.29Z"/></g><g id="XMLID_31_2" data-name="XMLID 31 2"><path id="Path_571" data-name="Path 571" class="cls-2" d="M388.6,202a7.87,7.87,0,0,0-7.26-4.68,6.92,6.92,0,0,0-3.15.67l-1.34-3.06a10.55,10.55,0,0,1,4.49-1,11.3,11.3,0,0,1,10.32,6.69Z"/></g><g id="XMLID_30_2" data-name="XMLID 30 2"><path id="Path_572" data-name="Path 572" class="cls-2" d="M342.15,222a22.33,22.33,0,0,1-6.59-16,22.56,22.56,0,0,1,6.59-16,22.33,22.33,0,0,1,16-6.59,22.56,22.56,0,0,1,16,6.59,22.33,22.33,0,0,1,6.59,16h-3.35a19.31,19.31,0,1,0-33,13.67Z"/></g><g id="XMLID_29_2" data-name="XMLID 29 2"><path id="Path_573" data-name="Path 573" class="cls-2" d="M340.33,233.87a13.94,13.94,0,0,1-3.54-27.43l.86,3.25a10.64,10.64,0,0,0,2.68,20.93Z"/></g><g id="XMLID_28_2" data-name="XMLID 28 2"><path id="Path_574" data-name="Path 574" class="cls-2" d="M270.28,228.43l-1.63-2.87a21.33,21.33,0,1,0-31.25-23.7l-3.25-.76a24.68,24.68,0,1,1,36.13,27.33Z"/></g><g id="XMLID_27_2" data-name="XMLID 27 2"><path id="Path_575" data-name="Path 575" class="cls-2" d="M278.59,234.54V231.2a5.93,5.93,0,1,0,0-11.85V216a9.27,9.27,0,1,1,0,18.54Z"/></g><g id="_Group_6" data-name="&lt;Group&gt;"><path id="Path_576" data-name="Path 576" class="cls-2" d="M322.84,230.43h-1.72a8.28,8.28,0,0,1-8.22-8.22V152.06h3.35v70.15a4.9,4.9,0,0,0,4.87,4.87h1.72Z"/></g><g id="XMLID_25_2" data-name="XMLID 25 2"><path id="Path_577" data-name="Path 577" class="cls-2" d="M292.16,228.81h-5.92v-3.34h5.92a4.28,4.28,0,0,0,4.3-4.27s0,0,0,0v-69.1h3.35v69.19A7.65,7.65,0,0,1,292.16,228.81Z"/></g><g id="XMLID_24_2" data-name="XMLID 24 2"><path id="Path_578" data-name="Path 578" class="cls-2" d="M289,255.38a13.15,13.15,0,0,1,.77-4.3,11.83,11.83,0,0,1,2.39-3.73,10.07,10.07,0,0,1,3.73-2.58,11.82,11.82,0,0,1,4.49-1,12.71,12.71,0,0,1,4.3.76,11.83,11.83,0,0,1,3.73,2.39l-2.29,2.39a7.37,7.37,0,0,0-2.58-1.62,8.28,8.28,0,0,0-3.06-.57,7.5,7.5,0,0,0-3.15.67,10.18,10.18,0,0,0-2.68,1.82,7.37,7.37,0,0,0-1.62,2.58,8.28,8.28,0,0,0-.57,3.06Z"/></g><g id="XMLID_23_2" data-name="XMLID 23 2"><path id="Path_579" data-name="Path 579" class="cls-2" d="M367.28,226.71l-3.15-1.15a6.65,6.65,0,0,0,.48-3.06,8.37,8.37,0,0,0-.67-3.06,10.18,10.18,0,0,0-1.82-2.68,7.54,7.54,0,0,0-2.77-1.72,6.65,6.65,0,0,0-3.06-.48,8.37,8.37,0,0,0-3.06.67l-1.34-3.06a10.87,10.87,0,0,1,4.3-1,10.75,10.75,0,0,1,4.3.76,11.26,11.26,0,0,1,3.82,2.39,10.07,10.07,0,0,1,2.58,3.73,10.87,10.87,0,0,1,1,4.3A8.29,8.29,0,0,1,367.28,226.71Z"/></g><g id="XMLID_22_2" data-name="XMLID 22 2"><path id="Path_580" data-name="Path 580" class="cls-2" d="M303.44,246.11l-3.35-.48a10.13,10.13,0,0,1,1.53-4.3,10.27,10.27,0,0,1,3.06-3.35,11.35,11.35,0,0,1,8.32-2.2l-.48,3.35a8.15,8.15,0,0,0-3.06.19,6.82,6.82,0,0,0-2.77,1.34,8.75,8.75,0,0,0-2.2,2.39A6.88,6.88,0,0,0,303.44,246.11Z"/></g><g id="XMLID_21_2" data-name="XMLID 21 2"><path id="Path_581" data-name="Path 581" class="cls-2" d="M368,248.11l-3.35-.48a10.13,10.13,0,0,1,1.53-4.3,10.27,10.27,0,0,1,3.06-3.35,11.52,11.52,0,0,1,3.92-1.91,11.29,11.29,0,0,1,4.4-.29l-.48,3.35a8.15,8.15,0,0,0-3.06.19,6.82,6.82,0,0,0-2.77,1.34,8.75,8.75,0,0,0-2.2,2.39A6.88,6.88,0,0,0,368,248.11Z"/></g><g id="_Group_7" data-name="&lt;Group&gt;"><path id="Path_582" data-name="Path 582" class="cls-2" d="M334.21,260.35a10.86,10.86,0,0,1-3.92-2.29,11.48,11.48,0,0,1-2.77-3.63,11.06,11.06,0,0,1-1.15-4.2,11.39,11.39,0,0,1,.57-4.4l3.15,1.05a8.17,8.17,0,0,0-.38,3.06,9.64,9.64,0,0,0,.77,3,8.57,8.57,0,0,0,2,2.58,8.15,8.15,0,0,0,2.77,1.62Z"/></g><g id="XMLID_19_2" data-name="XMLID 19 2"><path id="Path_583" data-name="Path 583" class="cls-2" d="M398.92,240.18l-1.43-3c5.83-2.87,9.84-9.08,10.42-16.34a15.29,15.29,0,0,0-4.11-11.75,19,19,0,0,0-18.06-5.54l-.77-3.25a22.5,22.5,0,0,1,21.31,6.59,18.6,18.6,0,0,1,5,14.24C410.38,229.57,405.8,236.74,398.92,240.18Z"/></g><g id="XMLID_18_2" data-name="XMLID 18 2"><path id="Path_584" data-name="Path 584" class="cls-2" d="M385.25,261.78v-3.34c9.08,0,16.34-7.36,17.2-17.39a13.29,13.29,0,0,0-.57-5.45l3.15-1a16,16,0,0,1,.67,6.69C404.75,253.18,396.15,261.78,385.25,261.78Z"/></g></g><g id="XMLID_1_2" data-name="XMLID 1 2"><g id="XMLID_16_2" data-name="XMLID 16 2"><path id="Path_585" data-name="Path 585" class="cls-2" d="M323.42,231.29h-3.35A8.93,8.93,0,0,1,329,222.4v3.35A5.61,5.61,0,0,0,323.42,231.29Z"/></g><g id="_Group_8" data-name="&lt;Group&gt;"><path id="Path_586" data-name="Path 586" class="cls-2" d="M388.6,202a7.87,7.87,0,0,0-7.26-4.68,6.92,6.92,0,0,0-3.15.67l-1.34-3.06a10.55,10.55,0,0,1,4.49-1,11.3,11.3,0,0,1,10.32,6.69Z"/></g><g id="_Group_9" data-name="&lt;Group&gt;"><path id="Path_587" data-name="Path 587" class="cls-2" d="M342.15,222a22.33,22.33,0,0,1-6.59-16,22.56,22.56,0,0,1,6.59-16,22.33,22.33,0,0,1,16-6.59,22.56,22.56,0,0,1,16,6.59,22.33,22.33,0,0,1,6.59,16h-3.35a19.31,19.31,0,1,0-33,13.67Z"/></g><g id="_Group_10" data-name="&lt;Group&gt;"><path id="Path_588" data-name="Path 588" class="cls-2" d="M340.33,233.87a13.94,13.94,0,0,1-3.54-27.43l.86,3.25a10.64,10.64,0,0,0,2.68,20.93Z"/></g><g id="XMLID_12_2" data-name="XMLID 12 2"><path id="Path_589" data-name="Path 589" class="cls-2" d="M270.28,228.42l-1.63-2.87a21.33,21.33,0,1,0-31.25-23.7l-3.25-.76a24.68,24.68,0,1,1,36.13,27.33Z"/></g><g id="XMLID_11_2" data-name="XMLID 11 2"><path id="Path_590" data-name="Path 590" class="cls-2" d="M278.59,234.54V231.2a5.93,5.93,0,1,0,0-11.85V216a9.27,9.27,0,1,1,0,18.54Z"/></g><g id="XMLID_10_2" data-name="XMLID 10 2"><path id="Path_591" data-name="Path 591" class="cls-2" d="M322.84,230.43h-1.72a8.28,8.28,0,0,1-8.22-8.22V103.12h3.35V222.21a4.9,4.9,0,0,0,4.87,4.87h1.72Z"/></g><g id="XMLID_9_2" data-name="XMLID 9 2"><path id="Path_592" data-name="Path 592" class="cls-2" d="M292.16,228.81h-5.92v-3.35h5.92a4.28,4.28,0,0,0,4.3-4.27s0,0,0,0V71h3.35V221.16A7.67,7.67,0,0,1,292.16,228.81Z"/></g><g id="XMLID_8_2" data-name="XMLID 8 2"><path id="Path_593" data-name="Path 593" class="cls-2" d="M289,255.38a13.15,13.15,0,0,1,.77-4.3,11.83,11.83,0,0,1,2.39-3.73,10.07,10.07,0,0,1,3.73-2.58,11.82,11.82,0,0,1,4.49-1,12.71,12.71,0,0,1,4.3.76,11.83,11.83,0,0,1,3.73,2.39l-2.29,2.39a7.37,7.37,0,0,0-2.58-1.62,8.28,8.28,0,0,0-3.06-.57,7.5,7.5,0,0,0-3.15.67,10.18,10.18,0,0,0-2.68,1.82,7.37,7.37,0,0,0-1.62,2.58,8.28,8.28,0,0,0-.57,3.06Z"/></g><g id="XMLID_7_2" data-name="XMLID 7 2"><path id="Path_594" data-name="Path 594" class="cls-2" d="M367.28,226.71l-3.15-1.15a6.65,6.65,0,0,0,.48-3.06,8.37,8.37,0,0,0-.67-3.06,10.18,10.18,0,0,0-1.82-2.68,7.54,7.54,0,0,0-2.77-1.72,6.65,6.65,0,0,0-3.06-.48,8.37,8.37,0,0,0-3.06.67l-1.34-3.06a10.87,10.87,0,0,1,4.3-1,10.75,10.75,0,0,1,4.3.76,11.26,11.26,0,0,1,3.82,2.39,10.07,10.07,0,0,1,2.58,3.73,10.87,10.87,0,0,1,1,4.3A8.29,8.29,0,0,1,367.28,226.71Z"/></g><g id="XMLID_6_2" data-name="XMLID 6 2"><path id="Path_595" data-name="Path 595" class="cls-2" d="M303.44,246.11l-3.35-.48a10.13,10.13,0,0,1,1.53-4.3,10.27,10.27,0,0,1,3.06-3.35,11.35,11.35,0,0,1,8.32-2.2l-.48,3.35a8.15,8.15,0,0,0-3.06.19,6.82,6.82,0,0,0-2.77,1.34,8.75,8.75,0,0,0-2.2,2.39A6.88,6.88,0,0,0,303.44,246.11Z"/></g><g id="XMLID_5_2" data-name="XMLID 5 2"><path id="Path_596" data-name="Path 596" class="cls-2" d="M368,248.11l-3.35-.48a10.13,10.13,0,0,1,1.53-4.3,10.27,10.27,0,0,1,3.06-3.35,11.52,11.52,0,0,1,3.92-1.91,11.29,11.29,0,0,1,4.4-.29l-.48,3.35a8.15,8.15,0,0,0-3.06.19,6.82,6.82,0,0,0-2.77,1.34,8.75,8.75,0,0,0-2.2,2.39A6.88,6.88,0,0,0,368,248.11Z"/></g><g id="XMLID_4_2" data-name="XMLID 4 2"><path id="Path_597" data-name="Path 597" class="cls-2" d="M334.21,260.35a10.86,10.86,0,0,1-3.92-2.29,11.48,11.48,0,0,1-2.77-3.63,11.06,11.06,0,0,1-1.15-4.2,11.39,11.39,0,0,1,.57-4.4l3.15,1.05a8.17,8.17,0,0,0-.38,3.06,9.64,9.64,0,0,0,.77,3,8.57,8.57,0,0,0,2,2.58,8.15,8.15,0,0,0,2.77,1.62Z"/></g><g id="XMLID_3_2" data-name="XMLID 3 2"><path id="Path_598" data-name="Path 598" class="cls-2" d="M398.92,240.18l-1.43-3c5.83-2.87,9.84-9.08,10.42-16.34a15.29,15.29,0,0,0-4.11-11.75,19,19,0,0,0-18.06-5.54l-.77-3.25a22.5,22.5,0,0,1,21.31,6.59,18.6,18.6,0,0,1,5,14.24C410.38,229.57,405.8,236.74,398.92,240.18Z"/></g><g id="XMLID_2_2" data-name="XMLID 2 2"><path id="Path_599" data-name="Path 599" class="cls-2" d="M385.25,261.78v-3.34c9.08,0,16.34-7.36,17.2-17.39a13.29,13.29,0,0,0-.57-5.45l3.15-1a16,16,0,0,1,.67,6.69C404.75,253.18,396.15,261.78,385.25,261.78Z"/></g></g></g><g id="Group_26" data-name="Group 26"><g id="Group_25" data-name="Group 25"><path id="Path_600" data-name="Path 600" class="cls-3" d="M326.95,43.22l-6.53-6.53a57.82,57.82,0,0,1-5.34,16.21A15,15,0,0,1,325.17,60a1.06,1.06,0,0,0,.79.59h.2a1.31,1.31,0,0,0,.79-1V43.82C327.15,43.82,326.95,43.42,326.95,43.22Z"/><path id="Path_601" data-name="Path 601" class="cls-3" d="M287.8,43.22c0,.2-.2.59-.2.79V59.83a1.31,1.31,0,0,0,.79,1h.2c.4,0,.79-.2.79-.59a15.07,15.07,0,0,1,10.08-7.12,65.18,65.18,0,0,1-5.14-16.21Z"/><path id="Path_602" data-name="Path 602" class="cls-3" d="M308,1.71a1,1,0,0,0-1.18,0,39.61,39.61,0,0,0-7.12,9.69h15.42A39.61,39.61,0,0,0,308,1.71Z"/><circle id="Ellipse_7" data-name="Ellipse 7" class="cls-4" cx="307.38" cy="21.28" r="3.95"/><path id="Path_603" data-name="Path 603" class="cls-5" d="M316.08,13.37h-17.4a36.53,36.53,0,0,0-3.16,14.83c0,11.07,4.35,22.14,8.11,28.27a1,1,0,0,0,.79.4h1v3a.93.93,0,0,0,.88,1h.11a.93.93,0,0,0,1-1V36.11a1,1,0,0,1,2,0V56.87h1a1,1,0,0,0,.79-.4c3.76-6.13,8.11-17.2,8.11-28.27A36.53,36.53,0,0,0,316.08,13.37Zm-8.7,13.84a5.83,5.83,0,0,1-5.93-5.72q0-.11,0-.21a5.83,5.83,0,0,1,5.72-5.93h.21a5.83,5.83,0,0,1,5.93,5.72q0,.11,0,.21a5.83,5.83,0,0,1-5.72,5.93Z"/></g></g></g></g></g></g></svg>