<svg id="Layer_1" data-name="Layer 1" xmlns="http://www.w3.org/2000/svg" viewBox="0 0 500 500"><defs><style>.cls-1{fill:#59c5c4;}.cls-2{fill:#fff;}</style></defs><title>Artboard 1 copy 2</title><rect class="cls-1" x="1.03" y="-2" width="500" height="500"/><path class="cls-2" d="M69.49,234.67,57.37,189h-.26L45.52,234.67H26.16l-21.6-68.1H24.31l12.51,46.23h.26l11.33-46.23H66.59l11.59,46.1h.26L91,166.58h19.23l-21.47,68.1Z"/><path class="cls-2" d="M114.29,185.87a31.14,31.14,0,0,1,18.18-18.57A38.89,38.89,0,0,1,147,164.73a39.42,39.42,0,0,1,14.55,2.57,31,31,0,0,1,18.24,18.57,41.84,41.84,0,0,1,2.5,14.82,41.29,41.29,0,0,1-2.5,14.75,32,32,0,0,1-7.11,11.26,31,31,0,0,1-11.13,7.18,40.38,40.38,0,0,1-14.55,2.5,39.84,39.84,0,0,1-14.49-2.5,31.08,31.08,0,0,1-11.06-7.18,31.94,31.94,0,0,1-7.11-11.26,41.24,41.24,0,0,1-2.5-14.75A41.8,41.8,0,0,1,114.29,185.87Zm17,22.79a21.21,21.21,0,0,0,2.7,7,14.36,14.36,0,0,0,5.07,4.94,15.47,15.47,0,0,0,7.9,1.84,15.84,15.84,0,0,0,8-1.84,14.22,14.22,0,0,0,5.14-4.94,21.24,21.24,0,0,0,2.7-7,39.88,39.88,0,0,0,.79-8,40.88,40.88,0,0,0-.79-8,20.53,20.53,0,0,0-2.7-7,15,15,0,0,0-5.14-4.94,15.42,15.42,0,0,0-8-1.91,14.38,14.38,0,0,0-13,6.85,20.5,20.5,0,0,0-2.7,7,40.88,40.88,0,0,0-.79,8A39.88,39.88,0,0,0,131.28,208.66Z"/><path class="cls-2" d="M209.3,166.58v12.64h.26a23,23,0,0,1,3.56-5.86,23.31,23.31,0,0,1,5.14-4.61,25.16,25.16,0,0,1,6.19-3,22.36,22.36,0,0,1,6.85-1.05,14.63,14.63,0,0,1,4.08.66v17.39q-1.32-.26-3.16-.46a33.55,33.55,0,0,0-3.56-.2,20,20,0,0,0-8.69,1.71,15.06,15.06,0,0,0-5.73,4.68,18.73,18.73,0,0,0-3.1,6.92,37.61,37.61,0,0,0-.92,8.56v30.69h-18.7v-68.1Z"/><path class="cls-2" d="M262.45,140.63v50.45L286,166.58h22.13l-25.68,25,28.58,43.07H288.4l-18.7-30.43-7.24,7v23.45h-18.7v-94Z"/><path class="cls-2" d="M339.07,225.6v20.28H318.39V225.6Z"/><path class="cls-2" d="M140.18,260.19v9.48h.39a21.46,21.46,0,0,1,9.22-8.63,26.68,26.68,0,0,1,11.59-2.7,31.77,31.77,0,0,1,12.32,2,18.27,18.27,0,0,1,7.57,5.66,21.94,21.94,0,0,1,3.89,8.82,55,55,0,0,1,1.12,11.53v41.89h-18.7V289.83q0-8.43-2.63-12.58t-9.35-4.15q-7.64,0-11.06,4.54t-3.42,14.95v35.7h-18.7v-68.1Z"/><path class="cls-2" d="M198.39,281.13a21.73,21.73,0,0,1,3.29-10.93,22.42,22.42,0,0,1,7.38-7,32.17,32.17,0,0,1,10.08-3.75,57.37,57.37,0,0,1,11.26-1.12,76.56,76.56,0,0,1,10.41.72,31.89,31.89,0,0,1,9.62,2.83,19,19,0,0,1,7.11,5.86q2.77,3.75,2.77,9.94v35.43a71,71,0,0,0,.53,8.83,15.93,15.93,0,0,0,1.84,6.32h-19a26.28,26.28,0,0,1-.86-3.23,27.63,27.63,0,0,1-.46-3.36,24.36,24.36,0,0,1-10.54,6.45A42.32,42.32,0,0,1,219.47,330a33.46,33.46,0,0,1-9.09-1.18,20.8,20.8,0,0,1-7.38-3.69,17.13,17.13,0,0,1-4.94-6.32,21.37,21.37,0,0,1-1.78-9.09,19.84,19.84,0,0,1,2-9.55,17.07,17.07,0,0,1,5.27-6,23.65,23.65,0,0,1,7.38-3.36,79.37,79.37,0,0,1,8.36-1.78q4.21-.66,8.3-1.05a49.91,49.91,0,0,0,7.24-1.19,12.62,12.62,0,0,0,5-2.31,5.06,5.06,0,0,0,1.71-4.41,9.93,9.93,0,0,0-1-4.81,7.27,7.27,0,0,0-2.63-2.77,10.39,10.39,0,0,0-3.82-1.32,31.49,31.49,0,0,0-4.68-.33q-5.53,0-8.69,2.37t-3.69,7.9ZM241.6,295a8.39,8.39,0,0,1-3,1.65,30.36,30.36,0,0,1-3.82,1q-2,.39-4.28.66t-4.48.66a33.61,33.61,0,0,0-4.15,1.05,12.28,12.28,0,0,0-3.56,1.78,8.46,8.46,0,0,0-2.44,2.83,9.1,9.1,0,0,0-.92,4.35,8.78,8.78,0,0,0,.92,4.21,7,7,0,0,0,2.5,2.7,10.56,10.56,0,0,0,3.69,1.38,23.58,23.58,0,0,0,4.35.39q5.53,0,8.56-1.84a12.34,12.34,0,0,0,4.48-4.41,14.12,14.12,0,0,0,1.78-5.2,36,36,0,0,0,.33-4.21Z"/><path class="cls-2" d="M309.81,260.19V272.7h-13.7v33.72q0,4.74,1.58,6.32t6.32,1.58c1.05,0,2.06,0,3-.13a25.55,25.55,0,0,0,2.77-.4v14.49a44.64,44.64,0,0,1-5.27.53q-2.9.13-5.66.13a54.62,54.62,0,0,1-8.23-.59,19.39,19.39,0,0,1-6.85-2.31,12.18,12.18,0,0,1-4.68-4.87,17.38,17.38,0,0,1-1.71-8.3V272.7H266.08V260.19h11.33V239.77h18.7v20.42Z"/><path class="cls-2" d="M338.39,260.19v68.1h-18.7v-68.1Z"/><path class="cls-2" d="M351.58,279.49a31.14,31.14,0,0,1,18.18-18.57,38.89,38.89,0,0,1,14.49-2.57,39.42,39.42,0,0,1,14.55,2.57A31,31,0,0,1,417,279.49a41.86,41.86,0,0,1,2.5,14.82,41.3,41.3,0,0,1-2.5,14.75,32,32,0,0,1-7.11,11.26,31,31,0,0,1-11.13,7.18,40.38,40.38,0,0,1-14.55,2.5,39.84,39.84,0,0,1-14.49-2.5,31.09,31.09,0,0,1-11.06-7.18,31.92,31.92,0,0,1-7.11-11.26,41.23,41.23,0,0,1-2.5-14.75A41.79,41.79,0,0,1,351.58,279.49Zm17,22.79a21.18,21.18,0,0,0,2.7,7,14.36,14.36,0,0,0,5.07,4.94,15.47,15.47,0,0,0,7.9,1.84,15.84,15.84,0,0,0,8-1.84,14.21,14.21,0,0,0,5.14-4.94,21.22,21.22,0,0,0,2.7-7,39.84,39.84,0,0,0,.79-8,40.84,40.84,0,0,0-.79-8,20.51,20.51,0,0,0-2.7-7,15,15,0,0,0-5.14-4.94,15.42,15.42,0,0,0-8-1.91,14.38,14.38,0,0,0-13,6.85,20.47,20.47,0,0,0-2.7,7,40.84,40.84,0,0,0-.79,8A39.84,39.84,0,0,0,368.57,302.27Z"/><path class="cls-2" d="M447.61,260.19v9.48H448a21.46,21.46,0,0,1,9.22-8.63,26.68,26.68,0,0,1,11.59-2.7,31.77,31.77,0,0,1,12.32,2,18.28,18.28,0,0,1,7.57,5.66,22,22,0,0,1,3.88,8.82,55,55,0,0,1,1.12,11.53v41.89H475V289.83q0-8.43-2.63-12.58T463,273.1q-7.64,0-11.06,4.54t-3.42,14.95v35.7h-18.7v-68.1Z"/></svg>